<?xml version="1.0" standalone="no"?>
<!DOCTYPE svg PUBLIC "-//W3C//DTD SVG 20010904//EN"
 "http://www.w3.org/TR/2001/REC-SVG-20010904/DTD/svg10.dtd">
<svg version="1.0" xmlns="http://www.w3.org/2000/svg"
 width="500.000000pt" height="500.000000pt" viewBox="0 0 500.000000 500.000000"
 preserveAspectRatio="xMidYMid meet">
<metadata>
Created by potrace 1.14, written by Peter Selinger 2001-2017
</metadata>
<g transform="translate(0.000000,500.000000) scale(0.100000,-0.100000)"
fill="#000000" stroke="none">
<path d="M817 4984 c-193 -35 -371 -129 -517 -274 -137 -135 -218 -274 -273
-469 l-22 -76 -3 -1624 c-3 -1798 -5 -1713 62 -1892 51 -137 118 -240 226
-349 135 -137 274 -218 469 -273 l76 -22 1624 -3 c1798 -3 1713 -5 1892 62
137 51 240 118 349 226 137 135 218 274 273 469 l22 76 3 1624 c3 1798 5 1713
-62 1892 -51 137 -118 240 -226 349 -135 137 -274 218 -469 273 l-76 22 -1635
2 c-1375 1 -1647 -1 -1713 -13z m1826 -513 c205 -41 390 -118 570 -238 102
-69 237 -186 226 -198 -4 -3 -40 24 -80 60 -354 320 -908 465 -1297 339 -438
-142 -783 -616 -866 -1189 -34 -237 -28 -457 19 -691 101 -500 406 -911 791
-1065 61 -24 193 -59 225 -59 5 0 10 416 11 1063 l3 1062 635 0 c707 0 690 1
849 -71 380 -174 552 -620 390 -1009 -83 -200 -271 -373 -472 -435 -40 -12
-79 -24 -87 -27 -8 -3 19 -15 60 -27 211 -62 385 -208 480 -401 202 -415 7
-911 -420 -1071 -138 -52 -187 -55 -840 -52 l-595 3 -3 471 -2 471 -70 7
c-412 38 -835 286 -1084 636 -75 105 -172 294 -210 410 -56 170 -70 269 -71
490 0 231 12 309 72 489 76 231 199 428 372 601 140 139 256 223 416 300 172
84 305 122 530 154 77 11 344 -3 448 -23z"/>
<path d="M2455 3527 c11 -7 45 -37 75 -67 94 -93 90 -60 90 -801 l0 -640 423
3 c483 3 460 0 554 95 222 226 274 816 103 1168 -63 130 -135 206 -224 237
-46 16 -99 17 -546 17 -388 0 -491 -3 -475 -12z"/>
<path d="M2620 1240 l0 -760 413 0 412 0 53 25 c202 94 326 445 300 847 -19
293 -143 550 -300 623 l-53 25 -412 0 -413 0 0 -760z"/>
</g>
</svg>
